<?xml version="1.0" encoding="iso-8859-1"?>
<!-- Uploaded to: SVG Repo, www.svgrepo.com, Generator: SVG Repo Mixer Tools -->
<svg version="1.1" id="Layer_1" xmlns="http://www.w3.org/2000/svg" xmlns:xlink="http://www.w3.org/1999/xlink" 
	 viewBox="0 0 512 512" xml:space="preserve">
<circle style="fill:#E6F3FF;" cx="256" cy="256" r="256"/>
<path style="fill:#CFDBE6;" d="M287.151,510.109C399.129,496.523,488.81,410.65,508.13,300.541L310.887,102.826l-6.261,27.446
	l-96.794-3.353l32.83,30.834l-21.575,14.2l68.11,68.11l-92.076,178.019L287.151,510.109z"/>
<path style="fill:#31BAFD;" d="M238.097,142.682c0,0-0.116,16.844-19.008,29.27c0,0,30.392-1.491,43.148-34.402L238.097,142.682z"/>
<rect id="SVGCleanerId_0" x="255.672" y="115.536" style="fill:#FD8469;" width="45.028" height="61.909"/>
<g>
	<rect id="SVGCleanerId_0_1_" x="255.672" y="115.536" style="fill:#FD8469;" width="45.028" height="61.909"/>
</g>
<g>
	<rect x="275.256" y="115.536" style="fill:#FC6F58;" width="25.443" height="61.909"/>
	<path style="fill:#FC6F58;" d="M258.562,157.753c-6.259,0-11.335,5.075-11.335,11.335v67.082c0,11.345-9.113,21.113-21.771,23.337
		l0,0c-23.338,4.101-40.138,22.111-40.138,43.025v92.76c0,19.044,17.568,34.483,39.24,34.483h45.337
		c21.671,0,39.24-15.439,39.24-34.483V169.088c0-6.26-5.075-11.335-11.335-11.335H258.562z"/>
</g>
<path style="fill:#F1543F;" d="M297.803,157.753h-22.121v271.646c18.928-2.458,33.456-16.791,33.456-34.107V169.088
	C309.138,162.828,304.063,157.753,297.803,157.753z"/>
<polygon style="fill:#31BAFD;" points="207.832,126.919 238.787,139.462 238.787,105.694 207.832,118.236 "/>
<path style="fill:#2C9984;" d="M305.974,145.315h-64.965c-3.818,0-6.915-3.096-6.915-6.915v-30.708c0-3.818,3.096-6.915,6.915-6.915
	h64.965c3.818,0,6.915,3.096,6.915,6.915V138.4C312.889,142.219,309.793,145.315,305.974,145.315z"/>
<path style="fill:#298472;" d="M305.976,100.78h-30.968v44.535h30.968c3.818,0,6.913-3.096,6.913-6.913v-30.71
	C312.889,103.876,309.793,100.78,305.976,100.78z"/>
</svg>